<svg width="45" height="50" viewBox="0 0 45 50" fill="none" xmlns="http://www.w3.org/2000/svg">
<path d="M44.4314 0.701172H45V42.1326H3C3 31.1443 7.36508 20.606 15.135 12.8361C22.9049 5.06625 33.4431 0.701172 44.4314 0.701172V0.701172Z" fill="#80E4AD"/>
<path d="M3 0.701172H3.56862C9.00946 0.701172 14.397 1.77283 19.4237 3.85495C24.4504 5.93707 29.0178 8.98888 32.865 12.8361C36.7123 16.6834 39.7641 21.2508 41.8462 26.2775C43.9283 31.3041 45 36.6917 45 42.1326H3V0.701172Z" fill="#B9ECCF"/>
<path d="M0 1.46094C22.9385 1.46094 30.933 26.4622 30.933 49.1616L0 42.5644V1.46094Z" fill="#33D37B"/>
</svg>
