<svg width="53" height="53" viewBox="0 0 53 53" fill="none" xmlns="http://www.w3.org/2000/svg">
<path fill-rule="evenodd" clip-rule="evenodd" d="M26.5003 4.41699C29.4003 4.41698 32.272 4.98817 34.9512 6.09795C37.6305 7.20774 40.065 8.83438 42.1156 10.885C44.1662 12.9356 45.7929 15.3701 46.9027 18.0494C48.0125 20.7286 48.5837 23.6003 48.5837 26.5003C48.5837 38.6966 38.6966 48.5837 26.5003 48.5837C14.3041 48.5837 4.41699 38.6966 4.41699 26.5003C4.41699 14.3041 14.3041 4.41699 26.5003 4.41699ZM28.7087 28.7087H24.292C18.8248 28.7087 14.1311 32.0198 12.1067 36.7465C15.3098 41.2381 20.563 44.167 26.5003 44.167C32.4375 44.167 37.6907 41.2381 40.894 36.7462C38.8696 32.0198 34.1759 28.7087 28.7087 28.7087ZM26.5003 11.042C22.8414 11.042 19.8753 14.0081 19.8753 17.667C19.8753 21.3259 22.8414 24.292 26.5003 24.292C30.1592 24.292 33.1253 21.3259 33.1253 17.667C33.1253 14.0081 30.1593 11.042 26.5003 11.042Z" fill="#9E9E9E"/>
</svg>
